<mxfile host="app.diagrams.net" agent="Mozilla/5.0 (Windows NT 10.0; Win64; x64) AppleWebKit/537.36 (KHTML, like Gecko) Chrome/137.0.0.0 Safari/537.36" version="27.1.4">
  <diagram name="Page-1" id="JMbB1vp_9AU66P72ARw9">
    <mxGraphModel dx="937" dy="487" grid="1" gridSize="10" guides="1" tooltips="1" connect="1" arrows="1" fold="1" page="1" pageScale="1" pageWidth="1000" pageHeight="500" math="0" shadow="0">
      <root>
        <mxCell id="0" />
        <mxCell id="1" parent="0" />
        <mxCell id="aNdBFVusY0MiDO4Fd0Sj-5" style="edgeStyle=orthogonalEdgeStyle;rounded=0;orthogonalLoop=1;jettySize=auto;html=1;" edge="1" parent="1" source="aNdBFVusY0MiDO4Fd0Sj-2" target="aNdBFVusY0MiDO4Fd0Sj-4">
          <mxGeometry relative="1" as="geometry" />
        </mxCell>
        <mxCell id="aNdBFVusY0MiDO4Fd0Sj-6" style="edgeStyle=orthogonalEdgeStyle;rounded=0;orthogonalLoop=1;jettySize=auto;html=1;" edge="1" parent="1" source="aNdBFVusY0MiDO4Fd0Sj-2" target="aNdBFVusY0MiDO4Fd0Sj-3">
          <mxGeometry relative="1" as="geometry" />
        </mxCell>
        <mxCell id="aNdBFVusY0MiDO4Fd0Sj-2" value="" style="sketch=0;outlineConnect=0;fontColor=#232F3E;gradientColor=none;fillColor=#232F3D;strokeColor=none;dashed=0;verticalLabelPosition=bottom;verticalAlign=top;align=center;html=1;fontSize=12;fontStyle=0;aspect=fixed;pointerEvents=1;shape=mxgraph.aws4.traditional_server;" vertex="1" parent="1">
          <mxGeometry x="438" y="160" width="45" height="78" as="geometry" />
        </mxCell>
        <mxCell id="aNdBFVusY0MiDO4Fd0Sj-3" value="" style="sketch=0;verticalLabelPosition=bottom;sketch=0;aspect=fixed;html=1;verticalAlign=top;strokeColor=none;fillColor=#000000;align=center;outlineConnect=0;pointerEvents=1;shape=mxgraph.citrix2.thin_client;" vertex="1" parent="1">
          <mxGeometry x="300" y="310" width="36.565" height="50" as="geometry" />
        </mxCell>
        <mxCell id="aNdBFVusY0MiDO4Fd0Sj-4" value="" style="sketch=0;verticalLabelPosition=bottom;sketch=0;aspect=fixed;html=1;verticalAlign=top;strokeColor=none;fillColor=#000000;align=center;outlineConnect=0;pointerEvents=1;shape=mxgraph.citrix2.thin_client;" vertex="1" parent="1">
          <mxGeometry x="580" y="310" width="36.565" height="50" as="geometry" />
        </mxCell>
      </root>
    </mxGraphModel>
  </diagram>
</mxfile>
